<mxfile host="app.diagrams.net" modified="2020-10-19T20:32:07.769Z" agent="5.0 (Windows NT 10.0; Win64; x64) AppleWebKit/537.36 (KHTML, like Gecko) Chrome/86.0.4240.75 Safari/537.36" etag="NtQtceSrMDKAPcRFvgwf" version="13.8.0" type="github">
  <diagram id="pXuAe6MkuVOxI3DjmwlJ" name="Page-1">
    <mxGraphModel dx="1038" dy="580" grid="1" gridSize="10" guides="1" tooltips="1" connect="1" arrows="1" fold="1" page="1" pageScale="1" pageWidth="850" pageHeight="1100" math="0" shadow="0">
      <root>
        <mxCell id="0" />
        <mxCell id="1" parent="0" />
        <mxCell id="MKJbf7j164CQNxkcjJRL-1" value="" style="whiteSpace=wrap;html=1;aspect=fixed;" vertex="1" parent="1">
          <mxGeometry x="105.00000000000001" y="70" width="640" height="640" as="geometry" />
        </mxCell>
        <mxCell id="MKJbf7j164CQNxkcjJRL-2" value="" style="rounded=0;whiteSpace=wrap;html=1;" vertex="1" parent="1">
          <mxGeometry x="105.00000000000001" y="70" width="640" height="60" as="geometry" />
        </mxCell>
        <mxCell id="MKJbf7j164CQNxkcjJRL-3" value="&lt;font style=&quot;font-size: 24px&quot; face=&quot;NiteClub&quot; data-font-src=&quot;https://www.dafont.com/nite-club.font&quot;&gt;&lt;b&gt;Lofi Chai&lt;/b&gt;&lt;/font&gt;" style="text;html=1;strokeColor=none;fillColor=none;align=center;verticalAlign=middle;whiteSpace=wrap;rounded=0;" vertex="1" parent="1">
          <mxGeometry x="360" y="80" width="110" height="40" as="geometry" />
        </mxCell>
        <mxCell id="MKJbf7j164CQNxkcjJRL-12" value="" style="rounded=0;whiteSpace=wrap;html=1;" vertex="1" parent="1">
          <mxGeometry x="105" y="130" width="180" height="580" as="geometry" />
        </mxCell>
        <mxCell id="MKJbf7j164CQNxkcjJRL-13" value="&lt;b&gt;MP3 Player&lt;/b&gt;" style="text;html=1;fillColor=none;align=center;verticalAlign=middle;whiteSpace=wrap;rounded=0;strokeColor=#000000;" vertex="1" parent="1">
          <mxGeometry x="310" y="650" width="180" height="30" as="geometry" />
        </mxCell>
        <mxCell id="MKJbf7j164CQNxkcjJRL-14" value="&lt;b&gt;Skip/Pause/Play&lt;/b&gt;" style="text;html=1;fillColor=none;align=center;verticalAlign=middle;whiteSpace=wrap;rounded=0;strokeColor=#000000;" vertex="1" parent="1">
          <mxGeometry x="310" y="680" width="100" height="30" as="geometry" />
        </mxCell>
        <mxCell id="MKJbf7j164CQNxkcjJRL-15" value="&lt;b&gt;Volume Slider&lt;/b&gt;" style="text;html=1;fillColor=none;align=center;verticalAlign=middle;whiteSpace=wrap;rounded=0;strokeColor=#000000;" vertex="1" parent="1">
          <mxGeometry x="410" y="680" width="80" height="30" as="geometry" />
        </mxCell>
        <mxCell id="MKJbf7j164CQNxkcjJRL-20" value="" style="ellipse;whiteSpace=wrap;html=1;aspect=fixed;" vertex="1" parent="1">
          <mxGeometry x="290" y="240" width="100" height="100" as="geometry" />
        </mxCell>
        <mxCell id="MKJbf7j164CQNxkcjJRL-21" value="&lt;h1&gt;&lt;font face=&quot;niteclub&quot;&gt;&lt;span style=&quot;font-size: 18px&quot;&gt;Featured Tea&lt;/span&gt;&lt;/font&gt;&lt;/h1&gt;" style="text;html=1;strokeColor=none;fillColor=none;align=center;verticalAlign=middle;whiteSpace=wrap;rounded=0;" vertex="1" parent="1">
          <mxGeometry x="320" y="280" width="40" height="20" as="geometry" />
        </mxCell>
        <mxCell id="MKJbf7j164CQNxkcjJRL-22" value="&lt;h1&gt;&lt;font face=&quot;niteclub&quot; style=&quot;font-size: 18px&quot;&gt;Featured Artist&lt;/font&gt;&lt;/h1&gt;" style="ellipse;whiteSpace=wrap;html=1;aspect=fixed;" vertex="1" parent="1">
          <mxGeometry x="290" y="360" width="100" height="100" as="geometry" />
        </mxCell>
        <mxCell id="MKJbf7j164CQNxkcjJRL-23" value="&lt;h1&gt;&lt;font face=&quot;niteclub&quot; style=&quot;font-size: 18px&quot;&gt;Featured Room&lt;/font&gt;&lt;/h1&gt;" style="ellipse;whiteSpace=wrap;html=1;aspect=fixed;" vertex="1" parent="1">
          <mxGeometry x="290" y="480" width="100" height="100" as="geometry" />
        </mxCell>
        <mxCell id="MKJbf7j164CQNxkcjJRL-24" value="&lt;span style=&quot;text-align: left&quot;&gt;Featured Tea will be displayed and information and picture can be enlarged when pressed.&lt;/span&gt;" style="text;html=1;strokeColor=none;fillColor=none;align=center;verticalAlign=middle;whiteSpace=wrap;rounded=0;" vertex="1" parent="1">
          <mxGeometry x="415" y="225" width="120" height="130" as="geometry" />
        </mxCell>
        <mxCell id="MKJbf7j164CQNxkcjJRL-25" value="&lt;span style=&quot;text-align: left&quot;&gt;Featured Artist will be displayed and information and picture can be enlarged when pressed.&lt;/span&gt;&lt;span style=&quot;text-align: left&quot;&gt;&lt;br&gt;&lt;/span&gt;" style="text;html=1;strokeColor=none;fillColor=none;align=center;verticalAlign=middle;whiteSpace=wrap;rounded=0;" vertex="1" parent="1">
          <mxGeometry x="415" y="345" width="120" height="130" as="geometry" />
        </mxCell>
        <mxCell id="MKJbf7j164CQNxkcjJRL-26" value="&lt;span style=&quot;text-align: left&quot;&gt;Featured Room will be displayed and information and picture can be enlarged when pressed&lt;br&gt;&lt;/span&gt;" style="text;html=1;strokeColor=none;fillColor=none;align=center;verticalAlign=middle;whiteSpace=wrap;rounded=0;" vertex="1" parent="1">
          <mxGeometry x="410" y="465" width="120" height="130" as="geometry" />
        </mxCell>
        <mxCell id="MKJbf7j164CQNxkcjJRL-5" value="Home" style="text;html=1;strokeColor=none;fillColor=none;align=center;verticalAlign=middle;whiteSpace=wrap;rounded=0;" vertex="1" parent="1">
          <mxGeometry x="125.00000000000001" y="150" width="40" height="20" as="geometry" />
        </mxCell>
        <mxCell id="MKJbf7j164CQNxkcjJRL-6" value="About" style="text;html=1;strokeColor=none;fillColor=none;align=center;verticalAlign=middle;whiteSpace=wrap;rounded=0;" vertex="1" parent="1">
          <mxGeometry x="125" y="190" width="40" height="20" as="geometry" />
        </mxCell>
        <mxCell id="MKJbf7j164CQNxkcjJRL-7" value="Events" style="text;html=1;strokeColor=none;fillColor=none;align=center;verticalAlign=middle;whiteSpace=wrap;rounded=0;" vertex="1" parent="1">
          <mxGeometry x="125" y="230" width="40" height="20" as="geometry" />
        </mxCell>
        <mxCell id="MKJbf7j164CQNxkcjJRL-11" value="Rooms" style="text;html=1;strokeColor=none;fillColor=none;align=center;verticalAlign=middle;whiteSpace=wrap;rounded=0;" vertex="1" parent="1">
          <mxGeometry x="125" y="270" width="40" height="20" as="geometry" />
        </mxCell>
        <mxCell id="MKJbf7j164CQNxkcjJRL-27" value="Tracks" style="text;html=1;strokeColor=none;fillColor=none;align=center;verticalAlign=middle;whiteSpace=wrap;rounded=0;" vertex="1" parent="1">
          <mxGeometry x="125" y="310" width="40" height="20" as="geometry" />
        </mxCell>
        <mxCell id="MKJbf7j164CQNxkcjJRL-33" value="&lt;h1&gt;&lt;span style=&quot;font-weight: normal&quot;&gt;&lt;font style=&quot;font-size: 11px&quot;&gt;&amp;lt;---&amp;nbsp; (Pull out slider will navigate to corresponding pages)&lt;/font&gt;&lt;/span&gt;&lt;/h1&gt;" style="text;html=1;strokeColor=none;fillColor=none;spacing=5;spacingTop=-20;whiteSpace=wrap;overflow=hidden;rounded=0;" vertex="1" parent="1">
          <mxGeometry x="285" y="130" width="295" height="40" as="geometry" />
        </mxCell>
        <mxCell id="MKJbf7j164CQNxkcjJRL-34" value="&lt;h1&gt;&lt;span style=&quot;font-weight: normal&quot;&gt;&lt;font style=&quot;font-size: 11px&quot;&gt;&amp;lt;---&amp;nbsp; (MP3 player sticks to bottom while navigating)&lt;/font&gt;&lt;/span&gt;&lt;/h1&gt;" style="text;html=1;strokeColor=none;fillColor=none;spacing=5;spacingTop=-20;whiteSpace=wrap;overflow=hidden;rounded=0;" vertex="1" parent="1">
          <mxGeometry x="490" y="650" width="260" height="50" as="geometry" />
        </mxCell>
        <mxCell id="MKJbf7j164CQNxkcjJRL-35" value="&lt;b&gt;&lt;font style=&quot;font-size: 23px&quot;&gt;Home&lt;/font&gt;&lt;/b&gt;" style="text;html=1;strokeColor=none;fillColor=none;align=center;verticalAlign=middle;whiteSpace=wrap;rounded=0;" vertex="1" parent="1">
          <mxGeometry x="56" y="20" width="160" height="50" as="geometry" />
        </mxCell>
      </root>
    </mxGraphModel>
  </diagram>
</mxfile>
